<?xml version="1.0" encoding="UTF-8" standalone="no"?>
<!-- Created with Inkscape (http://www.inkscape.org/) -->

<svg
   xmlns:dc="http://purl.org/dc/elements/1.1/"
   xmlns:cc="http://creativecommons.org/ns#"
   xmlns:rdf="http://www.w3.org/1999/02/22-rdf-syntax-ns#"
   xmlns:svg="http://www.w3.org/2000/svg"
   xmlns="http://www.w3.org/2000/svg"
   xmlns:sodipodi="http://sodipodi.sourceforge.net/DTD/sodipodi-0.dtd"
   xmlns:inkscape="http://www.inkscape.org/namespaces/inkscape"
   width="400"
   height="100"
   viewBox="0 0 400 100"
   id="svg2"
   version="1.1"
   inkscape:version="0.91 r13725"
   sodipodi:docname="logo-placeholder.svg">
  <defs
     id="defs4" />
  <sodipodi:namedview
     id="base"
     pagecolor="#ffffff"
     bordercolor="#666666"
     borderopacity="1.0"
     inkscape:pageopacity="0.0"
     inkscape:pageshadow="2"
     inkscape:zoom="1.979899"
     inkscape:cx="278.04697"
     inkscape:cy="30.437801"
     inkscape:document-units="px"
     inkscape:current-layer="layer1"
     showgrid="false"
     units="px"
     inkscape:window-width="2560"
     inkscape:window-height="1017"
     inkscape:window-x="-8"
     inkscape:window-y="-8"
     inkscape:window-maximized="1" />
  <metadata
     id="metadata7">
    <rdf:RDF>
      <cc:Work
         rdf:about="">
        <dc:format>image/svg+xml</dc:format>
        <dc:type
           rdf:resource="http://purl.org/dc/dcmitype/StillImage" />
        <dc:title></dc:title>
      </cc:Work>
    </rdf:RDF>
  </metadata>
  <g
     inkscape:label="Ebene 1"
     inkscape:groupmode="layer"
     id="layer1"
     transform="translate(0,-952.36216)">
    <g
       style="font-style:normal;font-weight:normal;font-size:40px;line-height:415.00000954%;font-family:sans-serif;letter-spacing:0px;word-spacing:0px;fill:#ffffff;fill-opacity:1;stroke:#965500;stroke-width:2;stroke-linecap:butt;stroke-linejoin:miter;stroke-miterlimit:4;stroke-dasharray:none;stroke-opacity:1"
       id="text4684">
      <path
         d="m 41.964287,973.58984 q 1.09375,0.58594 1.09375,1.32813 0,0.50781 -0.742188,0.50781 -0.15625,0 -0.507812,-0.0391 -0.3125,-0.0781 -0.46875,-0.0781 -1.484375,0 -3.59375,3.24219 -1.875,2.89063 -5.195313,12.57813 -0.3125,0.85937 -0.234375,1.01562 0.117188,0.27344 1.015625,0.3125 2.304688,0.19531 6.171875,-0.15625 1.328125,-0.11719 1.328125,1.13281 0,0.85938 -1.015625,1.05469 -0.820312,0.11719 -8.632812,0.70313 -4.6875,13.71089 -5.703125,23.20309 -0.03906,0.5078 -0.03906,0.8985 0,1.3281 0.664063,1.3281 1.054687,0 6.367187,-5.1172 0.625,-0.625 1.210938,-0.625 0.507812,0 0.625,0.4297 0.117187,0.4687 -0.351563,1.0937 -3.164062,4.1797 -6.210937,7.1094 -1.289063,1.211 -2.148438,1.211 -0.859375,0 -2.65625,-1.3672 -2.226562,-0.586 -2.226562,-2.3438 0,-0.2734 0.07813,-0.625 1.445312,-10.0781 5.664062,-24.80467 -2.070312,-0.27344 -3.75,-0.54687 -0.742187,-0.11719 -0.742187,-0.9375 0,-0.89844 0.78125,-1.09375 0.78125,-0.19532 2.890625,-0.85938 1.289062,-0.42969 2.5,-1.17187 4.179687,-12.92969 6.5625,-16.75782 1.367187,-2.1875 2.929687,-2.1875 1.484375,0 4.335938,1.5625 z"
         style="font-style:normal;font-variant:normal;font-weight:normal;font-stretch:normal;font-size:80px;line-height:415.00000954%;font-family:Pristina;-inkscape-font-specification:Pristina;letter-spacing:0px;word-spacing:0px;fill:#ffffff;fill-opacity:1;stroke:#965500;stroke-width:2;stroke-miterlimit:4;stroke-dasharray:none;stroke-opacity:1"
         id="path4141" />
      <path
         d="m 65.831474,997.41797 q -3.59375,9.96093 -4.960937,16.71873 0.585937,-0.5469 1.523437,-1.6797 0.976563,-1.1328 1.210938,-1.3281 0.546875,-0.7031 1.171875,-0.7031 0.585937,0 0.585937,0.5859 0,0.3516 -0.3125,0.8203 -3.671875,5.4297 -4.882812,10.9766 -0.351563,1.5625 -1.054688,1.5625 -0.664062,0 -2.460937,-1.25 -1.054688,-0.7031 -1.210938,-1.1719 -0.195312,-0.4297 0,-1.7187 1.640625,-9.9219 4.101563,-16.4844 -3.398438,5.5078 -9.257813,12.1875 -5.117187,5.8203 -7.382812,7.4219 -1.640625,1.1328 -2.5,1.1328 -0.703125,0 -2.148438,-1.1328 -2.070312,-1.25 -2.070312,-3.4375 0,-0.4297 0.07813,-0.9766 0.703125,-5.7812 5.078125,-13.4375 4.375,-7.69531 10.039062,-12.96874 1.835938,-1.71875 3.28125,-1.67969 1.40625,0.0781 5.351563,3.71094 0.351562,0.3125 0.351562,0.66406 0,0.625 -0.820312,0.625 -0.3125,0 -0.585938,-0.11719 -2.773437,-1.17187 -4.453125,0.0781 -3.671875,2.69531 -8.125,9.49219 -5.15625,7.8125 -6.210937,14.0625 -0.03906,0.2734 -0.03906,0.5078 0,0.9766 0.78125,0.9766 1.328125,0 3.164063,-1.836 4.375,-4.2578 9.375,-10.7031 5.117187,-6.6797 6.5625,-10.07812 1.054687,-2.5 1.367187,-3.51562 0.507813,-1.75782 1.09375,-1.75782 0.585938,0 2.734375,1.60157 0.898438,0.66406 0.976563,1.21093 0.07813,0.46875 -0.351563,1.64063 z"
         style="font-style:normal;font-variant:normal;font-weight:normal;font-stretch:normal;font-size:80px;line-height:415.00000954%;font-family:Pristina;-inkscape-font-specification:Pristina;letter-spacing:0px;word-spacing:0px;fill:#ffffff;fill-opacity:1;stroke:#965500;stroke-width:2;stroke-miterlimit:4;stroke-dasharray:none;stroke-opacity:1"
         id="path4143" />
      <path
         d="m 88.214287,992.14453 q 0,1.75781 -0.9375,5.625 -0.351563,1.32813 -0.78125,1.71875 -0.195313,0.19531 -1.328125,0.58592 -1.445313,0.5469 -1.796875,0.5469 -0.585938,0 -0.585938,-0.78126 0,-0.42968 0.15625,-1.13281 0.9375,-3.86719 0.703125,-5.35156 -0.195312,-1.52344 0.898438,-1.91406 1.914062,-0.97657 2.460937,-0.97657 1.210938,0 1.210938,1.67969 z m -6.25,22.42187 q 0.117187,4.6875 -5.195313,6.4063 -0.664062,1.6406 -1.25,2.2656 -0.898437,0.9375 -2.65625,1.0937 -1.132812,0.078 -2.421875,-0.1172 -2.304687,-0.3515 -5.664062,-0.8593 -0.9375,-0.1563 -1.132813,-1.1328 0.15625,-1.0547 2.1875,-1.25 2.773438,-0.1954 8.203125,-0.9766 2.03125,-0.4688 2.890625,-2.3047 0.507813,-0.9375 0.507813,-2.3047 0,-2.4609 -2.460938,-8.6719 -2.421875,-6.0546 -2.265625,-8.08589 0.3125,-4.88282 9.023438,-6.79688 0.859375,-0.19531 0.859375,0.625 0,0.46875 -0.625,0.74219 -4.21875,1.83594 -4.21875,4.53125 0,1.05469 0.390625,2.65623 0.390625,1.5625 2.34375,7.5781 1.445312,4.336 1.484375,6.6016 z"
         style="font-style:normal;font-variant:normal;font-weight:normal;font-stretch:normal;font-size:80px;line-height:415.00000954%;font-family:Pristina;-inkscape-font-specification:Pristina;letter-spacing:0px;word-spacing:0px;fill:#ffffff;fill-opacity:1;stroke:#965500;stroke-width:2;stroke-miterlimit:4;stroke-dasharray:none;stroke-opacity:1"
         id="path4145" />
      <path
         d="m 111.33929,973.58984 q 1.09375,0.58594 1.09375,1.32813 0,0.50781 -0.74219,0.50781 -0.15625,0 -0.50781,-0.0391 -0.3125,-0.0781 -0.46875,-0.0781 -1.48438,0 -3.59375,3.24219 -1.875,2.89063 -5.19532,12.57813 -0.3125,0.85937 -0.23437,1.01562 0.11719,0.27344 1.01562,0.3125 2.30469,0.19531 6.17188,-0.15625 1.32812,-0.11719 1.32812,1.13281 0,0.85938 -1.01562,1.05469 -0.82031,0.11719 -8.63281,0.70313 -4.687503,13.71089 -5.703128,23.20309 -0.03906,0.5078 -0.03906,0.8985 0,1.3281 0.664063,1.3281 1.054687,0 6.367188,-5.1172 0.625,-0.625 1.21094,-0.625 0.50781,0 0.625,0.4297 0.11718,0.4687 -0.35157,1.0937 -3.16406,4.1797 -6.210933,7.1094 -1.289063,1.211 -2.148438,1.211 -0.859375,0 -2.65625,-1.3672 -2.226562,-0.586 -2.226562,-2.3438 0,-0.2734 0.07813,-0.625 1.445312,-10.0781 5.664062,-24.80467 -2.070312,-0.27344 -3.75,-0.54687 -0.742187,-0.11719 -0.742187,-0.9375 0,-0.89844 0.78125,-1.09375 0.78125,-0.19532 2.890625,-0.85938 1.289062,-0.42969 2.5,-1.17187 4.179688,-12.92969 6.562498,-16.75782 1.36719,-2.1875 2.92969,-2.1875 1.48437,0 4.33594,1.5625 z"
         style="font-style:normal;font-variant:normal;font-weight:normal;font-stretch:normal;font-size:80px;line-height:415.00000954%;font-family:Pristina;-inkscape-font-specification:Pristina;letter-spacing:0px;word-spacing:0px;fill:#ffffff;fill-opacity:1;stroke:#965500;stroke-width:2;stroke-miterlimit:4;stroke-dasharray:none;stroke-opacity:1"
         id="path4147" />
      <path
         d="m 128.33147,1012.3008 q -9.49218,12.1484 -13.35937,12.1484 -1.83594,0 -4.64844,-2.539 -2.92969,-1.3672 -2.92969,-3.6719 0,-0.4297 0.0781,-0.8985 0.70312,-5.3515 2.85156,-11.8359 -1.44531,-0.7422 -1.44531,-1.4062 0,-0.5469 0.82031,-0.5469 0.625,0 1.28906,0.3515 3.47657,-7.81246 6.25,-11.09371 1.79688,-2.1875 3.24219,-2.1875 0.66406,0 3.28125,1.13282 -0.19531,-1.17188 0.66406,-1.36719 0.0391,0 1.83594,0 1.67969,0 1.67969,0.58594 0,0.11718 -0.11719,0.66406 -0.11719,0.54687 -0.11719,1.01562 0,1.40625 0.0391,3.47657 0.0391,2.07031 0.0391,2.77343 0,4.84376 -2.65625,6.75786 -2.42188,1.7578 -5.46875,1.7578 -1.60156,0 -5.3125,-0.8594 -0.66406,1.2109 -1.48438,4.7266 -1.09375,4.4531 -1.01562,7.8906 0.0391,2.0312 1.28906,2.0312 0.46875,0 1.21094,-0.2343 4.53125,-1.6016 12.61719,-9.7657 0.50781,-0.5078 1.01562,-0.5078 0.74219,0 0.74219,0.7031 0,0.4297 -0.39063,0.8985 z m -4.57031,-17.26564 q 0,-1.52344 -0.66406,-1.52344 -0.42969,0 -1.25,0.625 -3.82813,3.08594 -6.71875,10.82028 0.78125,0.1172 2.73437,0.2344 3.16407,0.1172 4.72657,-1.4453 1.17187,-1.1719 1.28906,-3.86719 -0.11719,1.99219 -0.11719,-4.84375 z"
         style="font-style:normal;font-variant:normal;font-weight:normal;font-stretch:normal;font-size:80px;line-height:415.00000954%;font-family:Pristina;-inkscape-font-specification:Pristina;letter-spacing:0px;word-spacing:0px;fill:#ffffff;fill-opacity:1;stroke:#965500;stroke-width:2;stroke-miterlimit:4;stroke-dasharray:none;stroke-opacity:1"
         id="path4149" />
      <path
         d="m 199.3471,1028.6289 q -1.13281,1.6406 -3.82813,3.9844 -3.08593,2.7344 -4.49218,2.7344 -5.3125,0 -19.17969,-28.9454 -0.70313,0.039 -1.17188,0.039 -1.75781,0 -1.75781,-0.7422 0,-0.7031 1.5625,-2.3437 -1.05469,-2.1485 -1.91406,-4.25784 l 0,-0.0781 q -17.03125,12.92967 -18.16406,19.84377 -0.27344,1.5234 1.09375,1.9922 1.01562,0.3515 2.57812,0.1172 6.32813,-1.0938 13.4375,-6.0157 0.58594,-0.4297 0.9375,-1.3672 0.35156,-0.9765 1.13281,-1.4453 1.91407,-1.0937 2.46094,-1.0937 1.01563,0 1.13281,1.7578 0.19532,2.1094 -0.11718,2.8516 -0.27344,0.5859 -1.48438,1.3671 -2.69531,1.7579 -7.85156,4.2579 -7.30469,3.5156 -10.54688,3.5156 -2.8125,0 -4.45312,-3.125 -3.63281,-2.7735 -3.63281,-4.8828 0,-3.75 8.24218,-11.211 5.78125,-5.3125 13.55469,-10.70309 -3.55469,-9.33594 -3.55469,-14.96094 0,-1.79688 4.88282,-1.79688 2.03125,0 4.02343,0.27344 1.83594,0.23438 1.67969,1.28906 5.19531,0.23438 7.34375,1.44532 1.28906,0.70312 1.28906,2.1875 0,0.46875 -0.39062,4.02343 -0.19531,1.5625 -3.08594,3.98438 -1.44531,1.21094 -6.91406,5.15625 0.3125,0.74219 0.97656,2.26562 0.70313,1.52341 1.01563,2.30471 1.83593,0.078 4.0625,0.078 12.22656,0 15.19531,-1.52343 1.875,-0.97656 2.03125,-2.03125 0.15625,-0.66406 1.09375,-0.66406 0.82031,0 0.82031,1.01562 0,1.5625 -0.54687,3.75002 -0.70313,2.6562 -1.71875,3.4375 -0.58594,0.4687 -6.40625,0.5078 -3.39844,-0.039 -6.79688,-0.039 -2.89062,0.039 -5.42969,0.2344 4.80469,9.8438 9.10157,16.2891 4.84375,7.2656 7.22656,7.2656 2.1875,-0.039 5.19531,-2.3438 0.35156,-0.2343 0.78125,-0.2343 0.97656,0 0.97656,0.8203 0,0.4297 -0.39062,1.0156 z m -20.625,-43.59374 q 0.19531,-1.09375 -3.24219,-2.61719 -3.16406,-1.36719 -4.60937,-1.36719 -2.73438,0 -2.73438,2.53906 0,2.34375 2.42188,8.86719 3.16406,-2.14844 5.70312,-4.57031 2.30469,-2.1875 2.46094,-2.85156 z"
         style="font-style:normal;font-variant:normal;font-weight:normal;font-stretch:normal;font-size:80px;line-height:415.00000954%;font-family:Pristina;-inkscape-font-specification:Pristina;letter-spacing:0px;word-spacing:0px;fill:#ffffff;fill-opacity:1;stroke:#965500;stroke-width:2;stroke-miterlimit:4;stroke-dasharray:none;stroke-opacity:1"
         id="path4151" />
      <path
         d="m 242.19866,994.05859 q 0,5.11719 -1.36719,9.76561 -0.42968,1.4063 -1.17187,1.4063 -0.54688,0 -2.42188,-1.5625 -0.9375,-0.7813 -0.46875,-2.2266 1.09375,-3.55468 1.09375,-5.70312 0,-0.74219 -0.3125,-0.74219 -0.46875,0 -1.52343,1.40625 -8.125,10.58596 -12.14844,23.74996 -1.28906,4.1797 -2.1875,4.1797 -0.35156,0 -3.08594,-1.3672 -1.32812,-0.664 -0.89844,-2.5781 3.08594,-13.5156 6.64063,-22.81248 -2.89063,3.04688 -3.67188,4.17968 -0.3125,0.4688 -0.85937,0.4688 -0.66406,0 -0.66406,-0.586 0,-0.3515 0.3125,-0.7812 1.91406,-2.30472 5.11718,-7.03128 0.97657,-1.71875 1.95313,-1.71875 0.70312,0 2.85156,1.09375 1.21094,0.625 0.39063,1.67969 -0.85938,1.13281 -3.24219,8.00779 -2.26563,6.6797 -3.125,10.4688 5.3125,-11.836 12.07031,-20.89847 1.28906,-1.71875 2.07031,-1.71875 0.70313,0 1.91407,0.9375 1.64062,0.19531 2.07031,0.50781 0.66406,0.46875 0.66406,1.875 z"
         style="font-style:normal;font-variant:normal;font-weight:normal;font-stretch:normal;font-size:80px;line-height:415.00000954%;font-family:Pristina;-inkscape-font-specification:Pristina;letter-spacing:0px;word-spacing:0px;fill:#ffffff;fill-opacity:1;stroke:#965500;stroke-width:2;stroke-miterlimit:4;stroke-dasharray:none;stroke-opacity:1"
         id="path4153" />
      <path
         d="m 269.89397,997.41797 q -3.59375,9.96093 -4.96093,16.71873 0.58593,-0.5469 1.52343,-1.6797 0.97657,-1.1328 1.21094,-1.3281 0.54688,-0.7031 1.17188,-0.7031 0.58593,0 0.58593,0.5859 0,0.3516 -0.3125,0.8203 -3.67187,5.4297 -4.88281,10.9766 -0.35156,1.5625 -1.05469,1.5625 -0.66406,0 -2.46093,-1.25 -1.05469,-0.7031 -1.21094,-1.1719 -0.19531,-0.4297 0,-1.7187 1.64062,-9.9219 4.10156,-16.4844 -3.39844,5.5078 -9.25781,12.1875 -5.11719,5.8203 -7.38281,7.4219 -1.64063,1.1328 -2.5,1.1328 -0.70313,0 -2.14844,-1.1328 -2.07031,-1.25 -2.07031,-3.4375 0,-0.4297 0.0781,-0.9766 0.70313,-5.7812 5.07813,-13.4375 4.375,-7.69531 10.03906,-12.96874 1.83594,-1.71875 3.28125,-1.67969 1.40625,0.0781 5.35156,3.71094 0.35156,0.3125 0.35156,0.66406 0,0.625 -0.82031,0.625 -0.3125,0 -0.58594,-0.11719 -2.77343,-1.17187 -4.45312,0.0781 -3.67188,2.69531 -8.125,9.49219 -5.15625,7.8125 -6.21094,14.0625 -0.0391,0.2734 -0.0391,0.5078 0,0.9766 0.78125,0.9766 1.32812,0 3.16406,-1.836 4.375,-4.2578 9.375,-10.7031 5.11719,-6.6797 6.5625,-10.07812 1.05469,-2.5 1.36719,-3.51562 0.50781,-1.75782 1.09375,-1.75782 0.58594,0 2.73437,1.60157 0.89844,0.66406 0.97657,1.21093 0.0781,0.46875 -0.35157,1.64063 z"
         style="font-style:normal;font-variant:normal;font-weight:normal;font-stretch:normal;font-size:80px;line-height:415.00000954%;font-family:Pristina;-inkscape-font-specification:Pristina;letter-spacing:0px;word-spacing:0px;fill:#ffffff;fill-opacity:1;stroke:#965500;stroke-width:2;stroke-miterlimit:4;stroke-dasharray:none;stroke-opacity:1"
         id="path4155" />
      <path
         d="m 295.87054,973.58984 q 1.09375,0.58594 1.09375,1.32813 0,0.50781 -0.74219,0.50781 -0.15625,0 -0.50781,-0.0391 -0.3125,-0.0781 -0.46875,-0.0781 -1.48438,0 -3.59375,3.24219 -1.875,2.89063 -5.19532,12.57813 -0.3125,0.85937 -0.23437,1.01562 0.11719,0.27344 1.01562,0.3125 2.30469,0.19531 6.17188,-0.15625 1.32812,-0.11719 1.32812,1.13281 0,0.85938 -1.01562,1.05469 -0.82031,0.11719 -8.63281,0.70313 -4.6875,13.71089 -5.70313,23.20309 -0.0391,0.5078 -0.0391,0.8985 0,1.3281 0.66406,1.3281 1.05469,0 6.36719,-5.1172 0.625,-0.625 1.21094,-0.625 0.50781,0 0.625,0.4297 0.11718,0.4687 -0.35157,1.0937 -3.16406,4.1797 -6.21093,7.1094 -1.28907,1.211 -2.14844,1.211 -0.85938,0 -2.65625,-1.3672 -2.22656,-0.586 -2.22656,-2.3438 0,-0.2734 0.0781,-0.625 1.44531,-10.0781 5.66406,-24.80467 -2.07031,-0.27344 -3.75,-0.54687 -0.74218,-0.11719 -0.74218,-0.9375 0,-0.89844 0.78125,-1.09375 0.78125,-0.19532 2.89062,-0.85938 1.28906,-0.42969 2.5,-1.17187 4.17969,-12.92969 6.5625,-16.75782 1.36719,-2.1875 2.92969,-2.1875 1.48437,0 4.33594,1.5625 z"
         style="font-style:normal;font-variant:normal;font-weight:normal;font-stretch:normal;font-size:80px;line-height:415.00000954%;font-family:Pristina;-inkscape-font-specification:Pristina;letter-spacing:0px;word-spacing:0px;fill:#ffffff;fill-opacity:1;stroke:#965500;stroke-width:2;stroke-miterlimit:4;stroke-dasharray:none;stroke-opacity:1"
         id="path4157" />
      <path
         d="m 312.86272,1012.3008 q -9.49218,12.1484 -13.35937,12.1484 -1.83594,0 -4.64844,-2.539 -2.92969,-1.3672 -2.92969,-3.6719 0,-0.4297 0.0781,-0.8985 0.70312,-5.3515 2.85156,-11.8359 -1.44531,-0.7422 -1.44531,-1.4062 0,-0.5469 0.82031,-0.5469 0.625,0 1.28906,0.3515 3.47657,-7.81246 6.25,-11.09371 1.79688,-2.1875 3.24219,-2.1875 0.66406,0 3.28125,1.13282 -0.19531,-1.17188 0.66406,-1.36719 0.0391,0 1.83594,0 1.67969,0 1.67969,0.58594 0,0.11718 -0.11719,0.66406 -0.11719,0.54687 -0.11719,1.01562 0,1.40625 0.0391,3.47657 0.0391,2.07031 0.0391,2.77343 0,4.84376 -2.65625,6.75786 -2.42188,1.7578 -5.46875,1.7578 -1.60156,0 -5.3125,-0.8594 -0.66406,1.2109 -1.48438,4.7266 -1.09375,4.4531 -1.01562,7.8906 0.0391,2.0312 1.28906,2.0312 0.46875,0 1.21094,-0.2343 4.53125,-1.6016 12.61719,-9.7657 0.50781,-0.5078 1.01562,-0.5078 0.74219,0 0.74219,0.7031 0,0.4297 -0.39063,0.8985 z m -4.57031,-17.26564 q 0,-1.52344 -0.66406,-1.52344 -0.42969,0 -1.25,0.625 -3.82813,3.08594 -6.71875,10.82028 0.78125,0.1172 2.73437,0.2344 3.16407,0.1172 4.72657,-1.4453 1.17187,-1.1719 1.28906,-3.86719 -0.11719,1.99219 -0.11719,-4.84375 z"
         style="font-style:normal;font-variant:normal;font-weight:normal;font-stretch:normal;font-size:80px;line-height:415.00000954%;font-family:Pristina;-inkscape-font-specification:Pristina;letter-spacing:0px;word-spacing:0px;fill:#ffffff;fill-opacity:1;stroke:#965500;stroke-width:2;stroke-miterlimit:4;stroke-dasharray:none;stroke-opacity:1"
         id="path4159" />
    </g>
    <path
       id="path4698"
       style="fill:none;fill-rule:evenodd;stroke:#965500;stroke-width:2;stroke-linecap:round;stroke-linejoin:miter;stroke-miterlimit:4;stroke-dasharray:none;stroke-opacity:1"
       d="m 350.71429,1006.2907 0,20.8929 m 12.5,0.4464 c 0,2.4162 -5.47652,4.375 -12.23214,4.375 -6.75563,0 -12.23215,-1.9588 -12.23215,-4.375 0,-2.4162 5.47652,-4.375 12.23215,-4.375 6.75562,0 12.23214,1.9588 12.23214,4.375 z m 5.98734,-54.73211 c -1e-5,2.27118 -8.29706,4.11234 -18.53198,4.11234 -10.23493,0 -18.53198,-1.84116 -18.53199,-4.11234 -10e-6,-2.27119 8.29705,-4.11235 18.53199,-4.11235 10.23494,0 18.53199,1.84116 18.53198,4.11235 z m -37.10593,-0.71346 c 0.15751,18.94741 8.44624,34.15537 18.61914,34.16207 10.17062,-0.013 18.4558,-15.2189 18.61328,-34.16207"
       inkscape:connector-curvature="0"
       sodipodi:nodetypes="ccssssssssssccc" />
  </g>
</svg>
